#!OML:ASF F:\VICON\USERDATA\INSTALL\rory3\rory3.ASF
:FULLY-SPECIFIED
:DEGREES
20
root 0.5063189999999997 17.8678 -13.820300000000048 -2.60283 -5.030850000000003 -0.5493039999999969
lfemur -20.061000000000025 -0.045435799999997695 -23.667299999999997
ltibia 30.35350000000001
lfoot -6.455019999999998 -5.72124
ltoes 7.426939999999979
rfemur -5.066020000000016 0.7635199999999998 24.1069
rtibia 64.72630000000001
rfoot 20.724300000000024 -2.23013
rtoes 11.614400000000007
lowerback nan 2.297059999999999 -0.09151839999999933
upperback 0.12198999999999965 3.078349999999996 0.5800869999999996
thorax -6.10534 1.5212800000000022 0.1631310000000017
lowerneck -15.939500000000002 -3.5464500000000014 -1.1334099999999987
upperneck 21.6213 -4.828759999999997 0.7049269999999994
head 9.50483 -2.26064 -0.18554700000000016
lclavicle -6.559889999999997e-15 -4.373259999999995e-15
lhumerus -37.52579999999999 8.798009999999993 79.7328
lradius 18.895700000000005
lwrist 0.5921589999999957
lhand -27.324800000000003 21.508
lfingers nan
lthumb -0.7337930000000012 51.4865
rclavicle -6.559889999999997e-15 -4.373259999999995e-15
rhumerus -25.512299999999996 -11.218899999999985 -81.6824
rradius 30.851399999999995
rwrist 1.1489900000000084
rhand -18.9397 nan
rfingers nan
rthumb 7.363369999999999 -6.561889999999999
21
root 0.7220110239329378 17.995428328467163 -8.385863583507097 -3.5644395280766386 -3.2926164107774523 -0.7865757346650257
lfemur -14.578922360474213 -0.8698084018886352 -24.339068172757255
ltibia 32.594603394438884
lfoot -7.15684606906683 -3.816576643849955
ltoes 4.817447006110273
rfemur -13.350530668936342 0.5576303681358619 22.573511148802023
rtibia 73.28751606816411
rfoot 14.724962760259231 -3.771874107699601
rtoes 15.336044416404885
lowerback nan 1.49304939949707 -1.4460438928900134
upperback 0.8472891900535011 2.305768707188377 0.28092427772444495
thorax -5.850324530484879 1.1261186884420986 -0.16347174875918324
lowerneck -15.007176378594757 -3.4850453898692355 -1.1850581046372053
upperneck 20.753609859191897 -4.624767876525303 0.43809228481997886
head 9.401694004975703 -2.2146280335937516 0.10133173695393939
lclavicle -1.7647320598882983e-15 2.220643697284548e-15
lhumerus -35.884511987209244 8.309732836400908 79.33880049070105
lradius 22.66539921662229
lwrist 2.4586145625618574
lhand -28.1538913805045 20.39365352709893
lfingers nan
lthumb -1.439361866505077 50.6677177438961
rclavicle -4.822599265948014e-15 -8.982830767136882e-16
rhumerus -25.361351759961522 -15.094401685559998 -81.66457692951349
rradius 30.490442534783146
rwrist 3.2497307795293024
rhand -19.156270475703774 nan
rfingers nan
rthumb 7.330623914707102 -7.974331533078372
22
root 0.7806588725230645 18.02350114183572 -9.26648196420764 -3.8580808615459765 -3.084311061387077 0.5166882180634551
lfemur -11.512862801755949 -0.4660300786302386 -25.28881237565441
ltibia 32.081724498371045
lfoot -8.944420806239975 -1.4748578878195011
ltoes 6.179798923369193
rfemur -17.621804453629117 0.457327810783136 22.60411613208433
rtibia 76.61035322502138
rfoot 8.04602168368335 -4.2356878812363234
rtoes 15.078401918598612
lowerback nan 1.4648759794685708 -1.7656770339361376
upperback 0.9484129686253435 2.167454991714264 0.2341386729445658
thorax -5.6627515924145975 1.1376802959897034 0.12884089212287342
lowerneck -14.845574628397337 -3.3687858572147444 -1.5410497077660759
upperneck 20.80786194680535 -4.473027941557462 0.43466085309898955
head 9.442123871395198 -2.1071728229364313 0.20326235071441132
lclavicle -4.270227900154157e-15 5.365689314543285e-15
lhumerus -35.12768096609925 8.432334260793526 79.03132596935565
lradius 23.223002028986134
lwrist 2.9342532269851755
lhand -29.209707310418878 20.02625024577464
lfingers nan
lthumb -2.653084663339712 49.77243857346601
rclavicle -2.900635207255835e-15 5.7732056925404806e-15
rhumerus -25.91202577163297 -17.114773023883878 -80.94525839796648
rradius 28.668341250790597
rwrist 5.324583440238282
rhand -18.86426902754828 nan
rfingers nan
rthumb 7.73601126233704 -8.861709773192114
23
root 0.7930036268405248 18.018284209825698 -9.585544820334656 -3.9538073626754406 -2.646826865284651 1.531415952536459
lfemur -8.419704351371315 -0.17913594952503353 -26.15826669369025
ltibia 31.5618807849725
lfoot -10.814042131194824 0.46778007397195775
ltoes 7.7248271299517075
rfemur -21.29619245900017 -0.0582065195439867 22.222692423387496
rtibia 76.2308678675607
rfoot 3.06130940636978 -5.334967038776382
rtoes 10.979049085450077
lowerback nan 1.0573854584501008 -2.371585392163999
upperback 0.9152478827460193 1.5119007480154494 0.1901325260981157
thorax -5.394529237885711 0.8669773958860263 0.5582380143530438
lowerneck -15.274906591987826 -3.246879433644132 -1.4645395550501168
upperneck 21.084793550613476 -4.537730891071055 0.3549937246981084
head 9.61880856378199 -2.08680178861354 -0.0807771004268664
lclavicle 9.176804615909615e-16 -3.5476781743778842e-15
lhumerus -34.15011029011314 7.5254670813282765 79.27127299167607
lradius 23.70991082324125
lwrist 3.404826706876563
lhand -30.07222071280232 20.12429897148695
lfingers nan
lthumb -3.3473888574313038 50.15866848618849
rclavicle -1.3339165771758472e-15 -7.64109806585781e-15
rhumerus -26.95259071971372 -19.654787458297534 -80.06400526003736
rradius 26.635854387804457
rwrist 6.540992159008961
rhand -18.502525395660104 nan
rfingers nan
rthumb 7.809285423425289 -8.723919210060927
24
root 0.7878129477546535 18.009608582630506 -8.948295581932191 -3.8572650733766283 -1.5803882076834013 1.6927747467731376
lfemur -6.499107733312752 -0.060204811981534156 -26.871698450163795
ltibia 30.652034423260112
lfoot -12.457658145581426 0.9326703887119381
ltoes 8.196791431189064
rfemur -24.543824279145127 -0.7196763460308535 22.130615500480463
rtibia 73.61252401197986
rfoot -1.070516907827086 -5.916622451868508
rtoes 10.633366042672035
lowerback nan 0.5121984871258439 -2.801243357505962
upperback 0.9714011351536036 0.6757895150346128 0.46181938345534124
thorax -5.647993918836005 0.425566333132759 1.0287511786689227
lowerneck -15.187912896797442 -3.0338320031574564 -1.8086818376784404
upperneck 20.93320074884956 -3.97698148184705 0.20831431851019797
head 9.687952384320637 -1.9829799122052867 -0.08827982681452899
lclavicle -6.0975920405895285e-15 2.0012302541326375e-15
lhumerus -33.297841518484944 7.710539483806649 79.32782885949901
lradius 24.828444169542834
lwrist 3.9728752970621932
lhand -29.478991182832598 21.595243429731273
lfingers nan
lthumb -2.5746272546480498 51.944797218632246
rclavicle -6.865821631657493e-15 8.360313257174174e-16
rhumerus -27.943870319753668 -21.33293921141177 -78.82483411064622
rradius 26.44322409587686
rwrist 6.394263818835905
rhand -18.64358771372704 nan
rfingers nan
rthumb 7.857592866146456 -8.533632525885569
